# xmcd CD database file
#
# Track frame offsets:
#	150
#	17465
#	50970
#
# Disc length: 908 seconds
#
# Revision: 0
# Processed by: cddbd v1.5PL3 Copyright (c) Steve Scherf et al.
# Submitted via: CDex 1.51
#
DISCID=1f038a03
DTITLE=Every Little Thing - Dear Friend
DYEAR=1900
DGENRE=J-POP
TTITLE0=Dear Friend
TTITLE1=Dear Friend(UK Mix)
TTITLE2=Dear Friend(Instrumentral)
EXTD=
EXTT0=
EXTT1=
EXTT2=
PLAYORDER=
